<svg width="15" height="14" viewBox="0 0 15 14" fill="none" xmlns="http://www.w3.org/2000/svg">
<path d="M13.2883 2.21249L13.2879 2.2121C12.9306 1.86461 12.5092 1.58828 12.0464 1.3983L12.0458 1.39803C11.5657 1.20016 11.0507 1.09883 10.5306 1.10002L10.5295 1.10002C9.79838 1.10002 9.08626 1.29862 8.46813 1.67278L8.46811 1.67279C8.32023 1.7623 8.18013 1.86037 8.04765 1.967L7.73416 2.21929L7.42067 1.967C7.28818 1.86037 7.14809 1.7623 7.0002 1.67279L7.00019 1.67278C6.38206 1.29862 5.66993 1.10002 4.93884 1.10002C4.41152 1.10002 3.90293 1.20002 3.42251 1.39804L3.42197 1.39826C2.95745 1.58908 2.53954 1.86311 2.18028 2.21225L2.1796 2.21291C1.82321 2.55793 1.53873 2.96878 1.34209 3.42206L13.2883 2.21249ZM13.2883 2.21249C13.6444 2.55812 13.929 2.96913 14.1264 3.4224C14.3308 3.89398 14.4348 4.39299 14.4333 4.90701V4.90844C14.4333 5.39018 14.3342 5.90318 14.1284 6.4371L14.128 6.43824C13.9575 6.88376 13.7054 7.35599 13.3773 7.84196C12.858 8.61008 12.1348 9.42433 11.222 10.2605C9.70486 11.6492 8.2027 12.6085 8.14756 12.6436L8.14746 12.6437L7.75339 12.8945C7.75334 12.8945 7.75329 12.8945 7.75323 12.8945C7.74792 12.8979 7.74115 12.9 7.73332 12.9C7.7255 12.9 7.71873 12.8979 7.71341 12.8945C7.71336 12.8945 7.71331 12.8945 7.71326 12.8945L7.31918 12.6437L7.31923 12.6436L7.31131 12.6388C7.31147 12.6389 7.31133 12.6388 7.31087 12.6385C7.30915 12.6374 7.30293 12.6335 7.29105 12.6259C7.27728 12.6171 7.258 12.6047 7.23355 12.5887C7.18468 12.5569 7.11574 12.5113 7.02954 12.4531C6.85712 12.3366 6.61626 12.1697 6.32952 11.9603C5.75525 11.5408 5.0009 10.9534 4.24484 10.2607L4.24479 10.2606M13.2883 2.21249L4.24479 10.2606M4.24479 10.2606C3.33205 9.4245 2.6088 8.61029 2.08953 7.8422L4.24479 10.2606ZM1.03333 4.90844C1.03333 4.39334 1.13751 3.89376 1.34207 3.4221L2.08951 7.84217C1.76201 7.3571 1.51093 6.88434 1.33825 6.4371C1.13246 5.90318 1.03333 5.39018 1.03333 4.90844Z" stroke="#ECECEC"/>
</svg>
